<svg id="Layer_1" data-name="Layer 1" xmlns="http://www.w3.org/2000/svg" viewBox="0 0 66.67 66.66"><defs><style>.cls-1{fill:#fff;}</style></defs><path class="cls-1" d="M31.7,2.29h4.16c1.12.15,2.24.25,3.34.44A33.45,33.45,0,0,1,66.6,29.88c.22,1.22.35,2.44.51,3.66v4.17c-.09.79-.18,1.59-.29,2.38a32.22,32.22,0,0,1-9.2,18.76c-8.55,8.53-18.87,11.7-30.72,9.36A31.85,31.85,0,0,1,7.33,55.84,32.38,32.38,0,0,1,.76,31.13,32.3,32.3,0,0,1,10,12.27,32.64,32.64,0,0,1,28,2.81C29.25,2.59,30.48,2.46,31.7,2.29ZM36.65,30V27.49c0-3.34.05-3.39,3.36-3.39h2.62V17.54a.85.85,0,0,0-.21-.07c-2.41,0-4.83-.1-7.22.1a6.55,6.55,0,0,0-6,4.73,15.21,15.21,0,0,0-.57,3.57c-.09,1.33,0,2.68,0,4.1H24.84v6.85h3.78V56.08h8.05V36.76h5.4l.7-6.81Z" transform="translate(-0.45 -2.29)"/></svg>