<svg id="Layer_1" data-name="Layer 1" xmlns="http://www.w3.org/2000/svg" viewBox="0 0 67.56 71.25"><defs><style>.cls-1{fill:#fff;}</style></defs><path class="cls-1" d="M33.77,68.18A32.56,32.56,0,1,1,66.33,35.65,32.58,32.58,0,0,1,33.77,68.18Zm-20-32.56h-.06c0,2.45,0,4.91,0,7.36a19.77,19.77,0,0,0,.19,2.78c.61,4,2.55,7.05,6.39,8.69a14.21,14.21,0,0,0,5.58,1.07q7.61,0,15.23,0a21.47,21.47,0,0,0,3.3-.25c4.07-.69,7.1-2.77,8.62-6.74a14.64,14.64,0,0,0,.9-5.16c0-5,0-10,0-15a19.31,19.31,0,0,0-.19-2.85c-.64-4.17-2.71-7.27-6.75-8.83a14.07,14.07,0,0,0-5.09-.93q-8.07,0-16.14,0A13.73,13.73,0,0,0,19.9,17c-4.07,1.91-5.87,5.35-6.14,9.62C13.58,29.58,13.73,32.61,13.73,35.62Z"/><path class="cls-1" d="M33.79,19.49c2.65,0,5.29,0,7.94,0a13,13,0,0,1,2.64.31,7.08,7.08,0,0,1,5.68,6.39,18.08,18.08,0,0,1,.13,2.21c0,4.94,0,9.89,0,14.84a12.1,12.1,0,0,1-.59,3.63,6.61,6.61,0,0,1-6.3,4.73c-3.79.21-7.59.19-11.38.2-2.52,0-5,0-7.55-.19a7.14,7.14,0,0,1-6.84-6.7,16.94,16.94,0,0,1-.12-2c0-5,0-10,0-15a11.57,11.57,0,0,1,.59-3.5,6.71,6.71,0,0,1,6.3-4.73c2.64-.2,5.29-.16,7.94-.22.52,0,1,0,1.56,0ZM44.36,35.67A10.58,10.58,0,1,0,33.81,46.21,10.55,10.55,0,0,0,44.36,35.67ZM44.4,23a2.11,2.11,0,1,0,2.14,2.07A2.1,2.1,0,0,0,44.4,23Z"/><path class="cls-1" d="M40.61,35.63a6.83,6.83,0,1,1-6.83-6.83A6.82,6.82,0,0,1,40.61,35.63Z"/></svg>