<svg id="Layer_1" data-name="Layer 1" xmlns="http://www.w3.org/2000/svg" viewBox="0 0 66.66 66.67"><defs><style>.cls-1{fill:#fff;}</style></defs><path class="cls-1" d="M31.82,2.29h4a4.48,4.48,0,0,0,.5.11,31.61,31.61,0,0,1,14,4.34A32.9,32.9,0,0,1,66.6,29.88c.23,1.21.34,2.44.51,3.66v4c0,.2-.08.41-.11.62-.27,1.71-.42,3.45-.82,5.13A33.32,33.32,0,1,1,27.13,3C28.68,2.66,30.26,2.51,31.82,2.29ZM14,30.62c-.21,3.78,2.38,7.07,6.79,8.75H17a9.19,9.19,0,0,0,8.21,6.23,18,18,0,0,1-6.05,3.06,20.91,20.91,0,0,1-6.64.67,1.74,1.74,0,0,0,.44.36c7.86,4.41,16,4.9,24.05.92C46.1,46.1,50.45,38.27,50.93,28.23A2.58,2.58,0,0,1,52,26a13.68,13.68,0,0,0,3.22-3.56l-4.53,1.23-.09-.21A8.86,8.86,0,0,0,54.06,19l-4.89,1.74a.92.92,0,0,1-1-.25,8.76,8.76,0,0,0-10.07-1.45,8.88,8.88,0,0,0-4.77,9c0,.28.07.55.12.9a25.32,25.32,0,0,1-18.23-9.25,8.71,8.71,0,0,0-1,6.33,8.86,8.86,0,0,0,3.5,5.36l-.12.22Z" transform="translate(-0.45 -2.29)"/></svg>